<svg xmlns="http://www.w3.org/2000/svg" xmlns:xlink="http://www.w3.org/1999/xlink" width="500" zoomAndPan="magnify" viewBox="0 0 375 374.999991" height="500" preserveAspectRatio="xMidYMid meet" version="1.0"><defs><g/></defs><rect x="-37.5" width="450" fill="#ffffff" y="-37.499999" height="449.999989" fill-opacity="1"/><rect x="-37.5" width="450" fill="#ffffff" y="-37.499999" height="449.999989" fill-opacity="1"/><rect x="-37.5" width="450" fill="#000000" y="-37.499999" height="449.999989" fill-opacity="1"/><g fill="#ffffff" fill-opacity="1"><g transform="translate(100.539264, 223.299485)"><g><path d="M 94.027344 -113.628906 L 75.703125 -113.628906 C 74.710938 -113.628906 74 -112.917969 74 -112.351562 L 74 -38.347656 L 21.589844 -113.203125 C 21.449219 -113.484375 20.59375 -113.628906 20.3125 -113.628906 L 1.421875 -113.628906 C 0.710938 -113.628906 0 -112.917969 0 -112.351562 L 0 -27.269531 L 21.730469 -27.269531 L 21.730469 -75.277344 L 74 -0.425781 C 74.140625 -0.140625 74.996094 0 75.277344 0 L 94.027344 0 C 95.019531 0 95.589844 -0.710938 95.589844 -1.277344 L 95.589844 -112.351562 C 95.589844 -112.917969 95.019531 -113.628906 94.027344 -113.628906 Z M 94.027344 -113.628906 "/></g></g></g><g fill="#ffffff" fill-opacity="1"><g transform="translate(212.618487, 308.470379)"><g><path d="M 23.4375 -72.4375 L 23.4375 -1.277344 C 23.4375 -0.710938 24.003906 0 25 0 L 43.320312 0 C 44.316406 0 45.023438 -0.710938 45.023438 -1.277344 L 45.023438 -72.4375 Z M 1.5625 -94.167969 L 66.757812 -94.167969 C 67.75 -94.167969 68.320312 -94.738281 68.320312 -95.449219 L 68.320312 -112.351562 C 68.320312 -112.917969 67.75 -113.628906 66.757812 -113.628906 L 1.5625 -113.628906 C 0.710938 -113.628906 0 -112.917969 0 -112.351562 L 0 -95.449219 C 0 -94.738281 0.710938 -94.167969 1.5625 -94.167969 Z M 1.5625 -94.167969 "/></g></g></g><g fill="#ffffff" fill-opacity="1"><g transform="translate(122.488627, 253.911444)"><g><path d="M 9.421875 -10.03125 L 9.421875 0 L 7.0625 0 L 3.09375 -5.796875 L 3.09375 0 L 0.765625 0 L 0.765625 -10.03125 L 3.125 -10.03125 L 7.109375 -4.015625 L 7.109375 -10.03125 Z M 9.421875 -10.03125 "/></g></g></g><g fill="#ffffff" fill-opacity="1"><g transform="translate(141.398168, 253.911444)"><g><path d="M 7.6875 -2.3125 L 7.6875 0 L 0.765625 0 L 0.765625 -10.03125 L 7.53125 -10.03125 L 7.53125 -7.796875 L 3.25 -7.796875 L 3.25 -6.125 L 6.9375 -6.125 L 6.9375 -4.046875 L 3.25 -4.046875 L 3.25 -2.3125 Z M 7.6875 -2.3125 "/></g></g></g><g fill="#ffffff" fill-opacity="1"><g transform="translate(158.196217, 253.911444)"><g><path d="M 2.640625 0 L 0 -10.03125 L 2.6875 -10.03125 L 3.75 -5.078125 C 3.789062 -4.898438 3.832031 -4.664062 3.875 -4.375 C 3.925781 -4.09375 4.007812 -3.539062 4.125 -2.71875 C 4.15625 -2.925781 4.21875 -3.316406 4.3125 -3.890625 C 4.40625 -4.460938 4.472656 -4.851562 4.515625 -5.0625 L 5.53125 -10.03125 L 8.125 -10.03125 L 9.1875 -5.078125 C 9.226562 -4.898438 9.269531 -4.664062 9.3125 -4.375 C 9.363281 -4.09375 9.445312 -3.539062 9.5625 -2.71875 C 9.59375 -2.925781 9.65625 -3.316406 9.75 -3.890625 C 9.84375 -4.460938 9.910156 -4.851562 9.953125 -5.0625 L 10.96875 -10.03125 L 13.578125 -10.03125 L 10.953125 0 L 8.09375 0 L 7.453125 -3.046875 C 7.347656 -3.554688 7.238281 -4.09375 7.125 -4.65625 C 7.019531 -5.21875 6.910156 -5.84375 6.796875 -6.53125 C 6.628906 -5.582031 6.492188 -4.863281 6.390625 -4.375 C 6.296875 -3.894531 6.207031 -3.453125 6.125 -3.046875 L 5.484375 0 Z M 2.640625 0 "/></g></g></g><g fill="#ffffff" fill-opacity="1"><g transform="translate(151.492531, 275.661443)"><g/></g></g><g fill="#ffffff" fill-opacity="1"><g transform="translate(229.981923, 175.968197)"><g><path d="M 8.140625 -10.03125 L 8.140625 -7.796875 L 5.40625 -7.796875 L 5.40625 0 L 2.921875 0 L 2.921875 -7.796875 L 0.1875 -7.796875 L 0.1875 -10.03125 Z M 8.140625 -10.03125 "/></g></g></g><g fill="#ffffff" fill-opacity="1"><g transform="translate(239.131921, 175.968197)"><g><path d="M 7.6875 -2.3125 L 7.6875 0 L 0.765625 0 L 0.765625 -10.03125 L 7.53125 -10.03125 L 7.53125 -7.796875 L 3.25 -7.796875 L 3.25 -6.125 L 6.9375 -6.125 L 6.9375 -4.046875 L 3.25 -4.046875 L 3.25 -2.3125 Z M 7.6875 -2.3125 "/></g></g></g><g fill="#ffffff" fill-opacity="1"><g transform="translate(248.025983, 175.968197)"><g><path d="M 5.125 -2.15625 C 5.550781 -2.15625 6.015625 -2.203125 6.515625 -2.296875 C 7.015625 -2.390625 7.460938 -2.507812 7.859375 -2.65625 L 7.859375 -0.46875 C 7.265625 -0.226562 6.734375 -0.0664062 6.265625 0.015625 C 5.796875 0.109375 5.304688 0.15625 4.796875 0.15625 C 3.867188 0.15625 3.128906 0.0507812 2.578125 -0.15625 C 2.023438 -0.375 1.582031 -0.71875 1.25 -1.1875 C 0.96875 -1.59375 0.757812 -2.109375 0.625 -2.734375 C 0.5 -3.367188 0.4375 -4.132812 0.4375 -5.03125 C 0.4375 -6.820312 0.820312 -8.128906 1.59375 -8.953125 C 2.363281 -9.773438 3.59375 -10.1875 5.28125 -10.1875 C 5.769531 -10.1875 6.207031 -10.175781 6.59375 -10.15625 C 6.976562 -10.132812 7.320312 -10.097656 7.625 -10.046875 L 7.625 -7.890625 C 7.28125 -7.910156 6.914062 -7.925781 6.53125 -7.9375 C 6.15625 -7.945312 5.738281 -7.953125 5.28125 -7.953125 C 4.695312 -7.953125 4.257812 -7.894531 3.96875 -7.78125 C 3.6875 -7.664062 3.476562 -7.472656 3.34375 -7.203125 C 3.21875 -6.984375 3.125 -6.695312 3.0625 -6.34375 C 3.007812 -6 2.984375 -5.5625 2.984375 -5.03125 C 2.984375 -4.519531 3.007812 -4.097656 3.0625 -3.765625 C 3.113281 -3.429688 3.191406 -3.148438 3.296875 -2.921875 C 3.429688 -2.648438 3.628906 -2.453125 3.890625 -2.328125 C 4.160156 -2.210938 4.570312 -2.15625 5.125 -2.15625 Z M 5.125 -2.15625 "/></g></g></g><g fill="#ffffff" fill-opacity="1"><g transform="translate(256.968031, 175.968197)"><g><path d="M 3.25 0 L 0.765625 0 L 0.765625 -10.03125 L 3.25 -10.03125 L 3.25 -6.203125 L 6.765625 -6.203125 L 6.765625 -10.03125 L 9.25 -10.03125 L 9.25 0 L 6.765625 0 L 6.765625 -3.96875 L 3.25 -3.96875 Z M 3.25 0 "/></g></g></g></svg>